<svg xmlns="http://www.w3.org/2000/svg" width="83" height="83" viewBox="0 0 83 83"><g transform="translate(-181 -648)"><circle cx="41.5" cy="41.5" r="41.5" transform="translate(181 648)" fill="#fff"/><path d="M203.01,708.99v-2.4h2.755v-8.622H203.01v-7.912h8.267v-6.4l-2.756,1.653V677l2.756-1.653V668.01h7.913V670.6l4.31-2.587L238.478,677v8.311l-2.756-1.653v6.4h8.267v7.912h-2.756v8.622h2.756v2.4Zm32.712-2.4h3.11v-8.622h-3.11Zm-6.889-5.689v5.689h4.487V692.456H213.678v14.133h4.488V700.9a5.334,5.334,0,1,1,10.668,0Zm-8.266,0v5.689h5.865V700.9a2.933,2.933,0,1,0-5.865,0Zm-12.4,5.689h3.11v-8.622h-3.11Zm27.556-11.023h5.866v-3.109h-5.866Zm-30.311,0h5.865v-3.109h-5.865Zm8.267-13.352v7.841h19.643v-7.841l-9.822-5.893Zm22.4-1.147v-2.711L223.5,670.811l-12.577,7.546v2.711l12.577-7.547Zm-22.4-7.165,3.11-1.866v-1.626h-3.11Zm5.865,10.188a3.956,3.956,0,1,1,3.956,3.956A3.961,3.961,0,0,1,219.543,684.091Zm2.4,0a1.555,1.555,0,1,0,1.555-1.555A1.557,1.557,0,0,0,221.945,684.091Z" fill="#f2ae00"/></g></svg>