<svg xmlns="http://www.w3.org/2000/svg" width="709" height="709" viewBox="0 0 709 709"><path d="M124,1060.49a360.175,360.175,0,0,1-36.246-1.83A352.533,352.533,0,0,1-74.2,999.947a356.457,356.457,0,0,1-95.753-95.753,354.532,354.532,0,0,1-32.685-60.217A352.712,352.712,0,0,1-223.3,777.434a355.363,355.363,0,0,1-5.372-35.2,359.806,359.806,0,0,1,0-72.491,355.351,355.351,0,0,1,5.372-35.2A352.719,352.719,0,0,1-202.642,568a354.538,354.538,0,0,1,32.685-60.217A356.458,356.458,0,0,1-74.2,412.033,352.494,352.494,0,0,1,87.755,353.32a359.809,359.809,0,0,1,72.491,0A352.538,352.538,0,0,1,322.2,412.033a356.458,356.458,0,0,1,95.753,95.753A354.538,354.538,0,0,1,450.642,568,352.72,352.72,0,0,1,471.3,634.546a355.356,355.356,0,0,1,5.372,35.2,359.809,359.809,0,0,1,0,72.491,355.368,355.368,0,0,1-5.372,35.2,352.713,352.713,0,0,1-20.656,66.543,354.532,354.532,0,0,1-32.685,60.217A356.457,356.457,0,0,1,322.2,999.947a352.5,352.5,0,0,1-161.959,58.713A360.175,360.175,0,0,1,124,1060.49Zm-181.938-228.9V851.1h333V831.592H252.67V761.536h22.392v-64.3H207.886v-52l22.392,13.434V591.134L108.562,518.1,73.534,539.122V518.1H9.239V577.7l-22.392,13.435v67.538L9.239,645.236v52H-57.938v64.3h22.392v70.056Zm246.312,0H151.906V785.368a43.344,43.344,0,1,0-86.687,0v46.224H28.75V716.752H188.374v114.84Zm-55.98,0H84.73V785.368a23.832,23.832,0,0,1,47.664,0v46.224Zm100.764,0H207.886V761.536h25.273Zm-223.919,0H-16.034V761.536H9.239ZM255.55,742.024H207.886V716.752H255.55v25.271Zm-246.311,0H-38.426V716.752H9.239v25.271Zm179.135-44.783H28.75V633.53l79.812-47.887,79.812,47.887v63.71Zm-79.812-80.612a32.148,32.148,0,1,0,32.148,32.148A32.184,32.184,0,0,0,108.562,616.629Zm0,44.784A12.636,12.636,0,1,1,121.2,648.777,12.65,12.65,0,0,1,108.562,661.413ZM6.357,624.211v0l0-22.028,102.2-61.322,102.2,61.322v22.028l-102.2-61.321L6.358,624.21Zm22.394-58.22V537.616H54.022v13.212L28.752,565.99Z" transform="translate(230.5 -351.49)" fill="#fff" opacity="0.18"/></svg>